<?xml version="1.0" encoding="iso-8859-1"?>
<!-- Uploaded to: SVG Repo, www.svgrepo.com, Generator: SVG Repo Mixer Tools -->
<!DOCTYPE svg PUBLIC "-//W3C//DTD SVG 1.1//EN" "http://www.w3.org/Graphics/SVG/1.1/DTD/svg11.dtd">
<svg fill="#000000" version="1.1" id="Capa_1" xmlns="http://www.w3.org/2000/svg" xmlns:xlink="http://www.w3.org/1999/xlink" 
	 width="800px" height="800px" viewBox="0 0 47.313 47.313"
	 xml:space="preserve">
<g>
	<path d="M44.811,16.313v5c0,1.656-1.344,3-3,3c-1.657,0-3-1.344-3-3v-5c0-1.657,1.343-3,3-3
		C43.467,13.313,44.811,14.656,44.811,16.313z M34.811,13.313c-1.657,0-3,1.343-3,3v5c0,1.656,1.343,3,3,3c1.656,0,3-1.344,3-3v-5
		C37.811,14.656,36.469,13.313,34.811,13.313z M27.811,13.313c-1.657,0-3,1.343-3,3v5c0,1.656,1.343,3,3,3c1.656,0,3-1.344,3-3v-5
		C30.811,14.656,29.469,13.313,27.811,13.313z M40.5,12c3.312,0,6-2.687,6-6c0-3.312-2.689-6-6-6H28.124
		c-2.219,0-4.152,1.208-5.189,3h-0.122c-7.72,0-14,6.28-14,14v23.313h-4.5c-1.933,0-3.5,1.567-3.5,3.5c0,1.934,1.567,3.5,3.5,3.5h15
		c1.933,0,3.5-1.566,3.5-3.5c0-1.933-1.567-3.5-3.5-3.5h-4.5V17c0-4.41,3.589-8,8-8h0.122c1.038,1.792,2.971,3,5.189,3H40.5z"/>
</g>
</svg>